<svg width="25" height="25" viewBox="0 0 25 25" fill="none" xmlns="http://www.w3.org/2000/svg">
<path d="M12.5 25C19.4036 25 25 19.4036 25 12.5C25 5.59646 19.4036 0 12.5 0C5.59644 0 0 5.59646 0 12.5C0 19.4036 5.59644 25 12.5 25Z" fill="#F5D278"/>
<path d="M5.85775 12.0155C5.58202 12.0155 5.31451 11.8714 5.16881 11.6144C4.9534 11.2341 5.08695 10.7516 5.46687 10.5362L7.23054 9.53664L5.44337 8.52262C5.06345 8.3072 4.93029 7.82428 5.1457 7.44437C5.36112 7.06445 5.84365 6.93089 6.22435 7.1467L9.2249 8.84926C9.47243 8.98987 9.62557 9.25269 9.62557 9.53743C9.62557 9.82217 9.47243 10.085 9.22451 10.2256L6.24746 11.9129C6.12408 11.9822 5.98974 12.0155 5.85775 12.0155Z" fill="#6C6C6C"/>
<path d="M19.1658 12.0061C19.0326 12.0061 18.8975 11.972 18.7737 11.9004L15.8421 10.1978C15.6008 10.0576 15.4528 9.80024 15.4528 9.52138C15.4528 9.24251 15.6012 8.9848 15.8425 8.84498L18.7514 7.15769C19.125 6.9411 19.6033 7.06799 19.8202 7.44164C20.0368 7.81528 19.9095 8.29351 19.5363 8.51049L17.793 9.52178L19.5598 10.5475C19.9334 10.7645 20.0603 11.2431 19.8433 11.6164C19.6973 11.8667 19.4352 12.0061 19.1658 12.0061Z" fill="#6C6C6C"/>
<path d="M8.02052 18.0746C7.96216 18.0746 7.90263 18.0664 7.84388 18.0491C7.50744 17.9516 7.31317 17.6019 7.40952 17.2654C7.78239 15.9596 9.33064 13.4901 12.52 13.4901C15.7132 13.4901 17.2341 15.9463 17.592 17.2451C17.6853 17.5835 17.4867 17.9336 17.1483 18.0268C16.8099 18.1204 16.4597 17.9214 16.3665 17.5831C16.3344 17.4703 15.5287 14.7611 12.5196 14.7611C9.50572 14.7611 8.66481 17.5004 8.63074 17.6167C8.54927 17.8944 8.29547 18.0746 8.02052 18.0746Z" fill="#6C6C6C"/>
</svg>
