<svg width="25" height="25" viewBox="0 0 25 25" fill="none" xmlns="http://www.w3.org/2000/svg">
<path d="M24.9938 12.8897C24.7784 19.7897 19.0103 25.2088 12.1099 24.9938C5.20951 24.7788 -0.20921 19.0103 0.00620655 12.1103C0.221624 5.20989 5.98971 -0.209211 12.8897 0.00620613C19.7897 0.221231 25.2092 5.98931 24.9938 12.8897Z" fill="#C4EFB9"/>
<path d="M5.1069 11.8091C4.75949 11.8091 4.47553 11.5295 4.47161 11.1809C4.47004 11.0587 4.47867 9.96671 5.20873 9.22764C5.61411 8.81756 6.16792 8.60057 6.80947 8.60057C7.45415 8.60057 8.00876 8.81834 8.41257 9.22998C9.1348 9.9667 9.1348 11.0497 9.13245 11.1707C9.1254 11.5216 8.82969 11.7966 8.48424 11.7938C8.1333 11.7868 7.85445 11.4969 7.86111 11.1456C7.86228 10.9643 7.80039 10.4179 7.50116 10.1163C7.33744 9.95182 7.11144 9.87153 6.80947 9.87153C6.50671 9.87153 6.27876 9.95301 6.11309 10.121C5.75119 10.4872 5.74257 11.1589 5.74257 11.1656C5.74688 11.5165 5.46567 11.8044 5.11434 11.8087C5.11199 11.8091 5.10964 11.8091 5.1069 11.8091Z" fill="#6C6C6C"/>
<path d="M16.5028 11.8091C16.1554 11.8091 15.8715 11.5295 15.8676 11.1809C15.866 11.0587 15.8746 9.96671 16.6051 9.22764C17.0104 8.81756 17.5643 8.60057 18.2058 8.60057C18.8505 8.60057 19.4051 8.81834 19.8089 9.22998C20.5311 9.9667 20.5311 11.0497 20.5288 11.1707C20.5217 11.5216 20.2245 11.7966 19.881 11.7938C19.53 11.7868 19.2512 11.4969 19.2578 11.1456C19.259 10.9643 19.1971 10.4179 18.8979 10.1163C18.7346 9.95182 18.5082 9.87153 18.2062 9.87153C17.9034 9.87153 17.6755 9.95301 17.5098 10.121C17.1479 10.4872 17.1393 11.1589 17.1393 11.1656C17.1436 11.5165 16.8624 11.8044 16.5111 11.8087C16.5075 11.8091 16.5052 11.8091 16.5028 11.8091Z" fill="#6C6C6C"/>
<path d="M6.86469 14.749C6.62656 14.7497 6.46245 14.9906 6.55254 15.2111C7.02175 16.3564 8.58841 19.2394 12.4753 19.2394C16.3603 19.2394 17.9626 16.3364 18.4463 15.181C18.5391 14.9597 18.3734 14.7157 18.1334 14.7164L6.86469 14.749Z" fill="white"/>
<path d="M12.4753 19.7979C8.28055 19.7979 6.57446 16.7382 6.03552 15.4226C5.92272 15.1477 5.95445 14.8359 6.11973 14.5884C6.28619 14.3397 6.56388 14.1908 6.86312 14.19L18.1318 14.1575C18.4353 14.1575 18.7146 14.3072 18.8814 14.5578C19.0475 14.8073 19.0776 15.121 18.9621 15.3968C18.4075 16.7202 16.6661 19.7979 12.4753 19.7979ZM7.20504 15.3067C7.77844 16.5205 9.25267 18.6809 12.4753 18.6809C15.6987 18.6809 17.2016 16.5013 17.7914 15.2761L7.20504 15.3067Z" fill="white"/>
</svg>
