<svg width="25" height="25" viewBox="0 0 25 25" fill="none" xmlns="http://www.w3.org/2000/svg">
<path d="M25 12.5002C25 19.4038 19.4034 25.0004 12.4998 25.0004C5.5962 25.0004 0 19.4038 0 12.5002C0 5.59661 5.5962 0 12.4998 0C19.4034 0 25 5.59661 25 12.5002Z" fill="#EC704B"/>
<path d="M6.80921 13.0102C6.30983 13.0102 5.90132 12.6017 5.90132 12.1023V9.92303C5.90132 9.42365 6.30983 9.01514 6.80921 9.01514C7.30859 9.01514 7.71711 9.42365 7.71711 9.92303V12.1023C7.7175 12.6017 7.30899 13.0102 6.80921 13.0102Z" fill="#6C6C6C"/>
<path d="M18.19 13.0102C17.6906 13.0102 17.2821 12.6017 17.2821 12.1023V9.92303C17.2821 9.42365 17.6906 9.01514 18.19 9.01514C18.6894 9.01514 19.0979 9.42365 19.0979 9.92303V12.1023C19.0983 12.6017 18.6894 13.0102 18.19 13.0102Z" fill="#6C6C6C"/>
<path d="M16.9653 19.2236C17.1705 19.4363 17.5395 19.2393 17.4592 18.9546C17.4584 18.9522 17.4576 18.9495 17.4568 18.9471C17.0659 17.6444 15.7597 14.3646 12.5202 14.3646C9.28223 14.3646 7.94663 17.6672 7.54321 18.9812C7.54243 18.9836 7.54165 18.9863 7.54086 18.9886C7.45822 19.2742 7.83031 19.4727 8.03515 19.2573C8.68885 18.5703 10.6261 17.4658 12.5002 17.4658C14.3744 17.4666 16.3112 18.5453 16.9653 19.2236Z" fill="#6C6C6C"/>
</svg>
