<svg width="25" height="25" viewBox="0 0 25 25" fill="none" xmlns="http://www.w3.org/2000/svg">
<path d="M25 12.5002C25 19.4038 19.403 25.0004 12.4998 25.0004C5.59621 25.0004 0 19.4038 0 12.5002C0 5.5966 5.5966 0 12.4998 0C19.403 0 25 5.5966 25 12.5002Z" fill="#B9DCEF"/>
<path d="M6.8096 13.2706C6.31021 13.2706 5.9017 12.8621 5.9017 12.3627V10.1835C5.9017 9.68408 6.31021 9.27557 6.8096 9.27557C7.30898 9.27557 7.71749 9.68408 7.71749 10.1835V12.3627C7.71749 12.8621 7.30898 13.2706 6.8096 13.2706Z" fill="#6C6C6C"/>
<path d="M18.19 13.2706C17.6906 13.2706 17.2821 12.8621 17.2821 12.3627V10.1835C17.2821 9.68408 17.6906 9.27557 18.19 9.27557C18.6894 9.27557 19.0979 9.68408 19.0979 10.1835V12.3627C19.0983 12.8621 18.6894 13.2706 18.19 13.2706Z" fill="#6C6C6C"/>
<path d="M19.6576 16.6163H5.34163C5.04082 16.6163 4.79681 16.3723 4.79681 16.0715C4.79681 15.7707 5.04082 15.5267 5.34163 15.5267H19.6576C19.9584 15.5267 20.2024 15.7707 20.2024 16.0715C20.2024 16.3723 19.9584 16.6163 19.6576 16.6163Z" fill="#6C6C6C"/>
</svg>
