<svg width="25" height="25" viewBox="0 0 25 25" fill="none" xmlns="http://www.w3.org/2000/svg">
<path d="M25 12.5002C25 19.4038 19.4034 25.0004 12.4998 25.0004C5.5962 25.0004 0 19.4038 0 12.5002C0 5.59658 5.59659 0 12.4998 0C19.4034 0 25 5.59619 25 12.5002Z" fill="#D0B9EF"/>
<path d="M16.3891 12.1829C16.0417 12.1829 15.7577 11.9033 15.7538 11.5547C15.7523 11.4325 15.7609 10.3405 16.4909 9.60142C16.8963 9.19134 17.4498 8.97435 18.0917 8.97435C18.7368 8.97435 19.291 9.19212 19.6948 9.60376C20.4171 10.3405 20.4171 11.4235 20.4147 11.5445C20.4077 11.8954 20.1151 12.1743 19.7665 12.1677C19.4156 12.1606 19.1367 11.8708 19.1433 11.5194C19.1445 11.3381 19.0826 10.7917 18.7834 10.4901C18.6201 10.3256 18.3937 10.2453 18.0917 10.2453C17.7889 10.2453 17.561 10.3268 17.3953 10.4948C17.0334 10.861 17.0248 11.5328 17.0248 11.5394C17.0291 11.8903 16.7479 12.1782 16.3966 12.1825C16.3942 12.1829 16.3915 12.1829 16.3891 12.1829Z" fill="#6C6C6C"/>
<path d="M5.2202 12.1829C4.87278 12.1829 4.58882 11.9033 4.5849 11.5547C4.58334 11.4325 4.59196 10.3405 5.32203 9.60142C5.72741 9.19134 6.28123 8.97435 6.92279 8.97435C7.56788 8.97435 8.12209 9.19212 8.5259 9.60376C9.24815 10.3405 9.24815 11.4235 9.2458 11.5445C9.23875 11.8954 8.94656 12.1743 8.59758 12.1677C8.24664 12.1606 7.96777 11.8708 7.97443 11.5194C7.9756 11.3381 7.91372 10.7917 7.61448 10.4901C7.45116 10.3256 7.22477 10.2453 6.92279 10.2453C6.62003 10.2453 6.39208 10.3268 6.2264 10.4948C5.8645 10.861 5.85588 11.5328 5.85588 11.5394C5.86019 11.8903 5.57897 12.1782 5.22764 12.1825C5.22529 12.1829 5.22255 12.1829 5.2202 12.1829Z" fill="#6C6C6C"/>
<path d="M12.4798 19.7348C9.28692 19.7348 7.76567 17.2786 7.40769 15.9798C7.31447 15.6414 7.51305 15.2913 7.85145 15.198C8.19025 15.1048 8.54001 15.3034 8.63322 15.6418C8.66534 15.7546 9.47101 18.4638 12.4798 18.4638C15.4937 18.4638 16.3347 15.7248 16.3687 15.6081C16.4678 15.2721 16.8199 15.0782 17.156 15.1757C17.4921 15.2732 17.6867 15.623 17.5904 15.9595C17.2175 17.2653 15.6692 19.7348 12.4798 19.7348Z" fill="#6C6C6C"/>
</svg>
